<?xml version="1.0" encoding="UTF-8" standalone="no"?>
<!-- Created with Inkscape (http://www.inkscape.org/) -->

<svg
   xmlns:osb="http://www.openswatchbook.org/uri/2009/osb"
   xmlns:dc="http://purl.org/dc/elements/1.1/"
   xmlns:cc="http://creativecommons.org/ns#"
   xmlns:rdf="http://www.w3.org/1999/02/22-rdf-syntax-ns#"
   xmlns:svg="http://www.w3.org/2000/svg"
   xmlns="http://www.w3.org/2000/svg"
   xmlns:xlink="http://www.w3.org/1999/xlink"
   xmlns:sodipodi="http://sodipodi.sourceforge.net/DTD/sodipodi-0.dtd"
   xmlns:inkscape="http://www.inkscape.org/namespaces/inkscape"
   width="765"
   height="990"
   id="svg2"
   version="1.1"
   inkscape:version="0.48.3.1 r9886"
   sodipodi:docname="model_2epis1net.svg">
  <defs
     id="defs4">
    <linearGradient
       inkscape:collect="always"
       id="linearGradient9399">
      <stop
         style="stop-color:#80ff00;stop-opacity:1;"
         offset="0"
         id="stop9401" />
      <stop
         style="stop-color:#80ff00;stop-opacity:0;"
         offset="1"
         id="stop9403" />
    </linearGradient>
    <linearGradient
       inkscape:collect="always"
       id="linearGradient9391">
      <stop
         style="stop-color:#80ff00;stop-opacity:1;"
         offset="0"
         id="stop9393" />
      <stop
         style="stop-color:#80ff00;stop-opacity:0;"
         offset="1"
         id="stop9395" />
    </linearGradient>
    <linearGradient
       inkscape:collect="always"
       id="linearGradient9383">
      <stop
         style="stop-color:#00f7ff;stop-opacity:1;"
         offset="0"
         id="stop9385" />
      <stop
         style="stop-color:#00f7ff;stop-opacity:0;"
         offset="1"
         id="stop9387" />
    </linearGradient>
    <linearGradient
       inkscape:collect="always"
       id="linearGradient9373">
      <stop
         style="stop-color:#0001ff;stop-opacity:1;"
         offset="0"
         id="stop9375" />
      <stop
         style="stop-color:#0001ff;stop-opacity:0;"
         offset="1"
         id="stop9377" />
    </linearGradient>
    <marker
       inkscape:stockid="TriangleOutL"
       orient="auto"
       refY="0.0"
       refX="0.0"
       id="TriangleOutL"
       style="overflow:visible">
      <path
         id="path5825"
         d="M 5.77,0.0 L -2.88,5.0 L -2.88,-5.0 L 5.77,0.0 z "
         style="fill-rule:evenodd;stroke:#000000;stroke-width:1.0pt"
         transform="scale(0.8)" />
    </marker>
    <marker
       inkscape:stockid="DotM"
       orient="auto"
       refY="0.0"
       refX="0.0"
       id="DotM"
       style="overflow:visible">
      <path
         id="path5747"
         d="M -2.5,-1.0 C -2.5,1.7600000 -4.7400000,4.0 -7.5,4.0 C -10.260000,4.0 -12.5,1.7600000 -12.5,-1.0 C -12.5,-3.7600000 -10.260000,-6.0 -7.5,-6.0 C -4.7400000,-6.0 -2.5,-3.7600000 -2.5,-1.0 z "
         style="fill-rule:evenodd;stroke:#000000;stroke-width:1.0pt"
         transform="scale(0.4) translate(7.4, 1)" />
    </marker>
    <marker
       inkscape:stockid="TriangleOutM"
       orient="auto"
       refY="0.0"
       refX="0.0"
       id="TriangleOutM"
       style="overflow:visible">
      <path
         id="path5828"
         d="M 5.77,0.0 L -2.88,5.0 L -2.88,-5.0 L 5.77,0.0 z "
         style="fill-rule:evenodd;stroke:#000000;stroke-width:1.0pt"
         transform="scale(0.4)" />
    </marker>
    <marker
       inkscape:stockid="Arrow1Mend"
       orient="auto"
       refY="0.0"
       refX="0.0"
       id="Arrow1Mend"
       style="overflow:visible;">
      <path
         id="path5692"
         d="M 0.0,0.0 L 5.0,-5.0 L -12.5,0.0 L 5.0,5.0 L 0.0,0.0 z "
         style="fill-rule:evenodd;stroke:#000000;stroke-width:1.0pt;"
         transform="scale(0.4) rotate(180) translate(10,0)" />
    </marker>
    <marker
       inkscape:stockid="Arrow1Lend"
       orient="auto"
       refY="0.0"
       refX="0.0"
       id="Arrow1Lend"
       style="overflow:visible;">
      <path
         id="path5686"
         d="M 0.0,0.0 L 5.0,-5.0 L -12.5,0.0 L 5.0,5.0 L 0.0,0.0 z "
         style="fill-rule:evenodd;stroke:#000000;stroke-width:1.0pt;"
         transform="scale(0.8) rotate(180) translate(12.5,0)" />
    </marker>
    <linearGradient
       id="linearGradient5259">
      <stop
         style="stop-color:#ff0000;stop-opacity:1;"
         offset="0"
         id="stop5261" />
      <stop
         style="stop-color:#80ff00;stop-opacity:0;"
         offset="1"
         id="stop5263" />
    </linearGradient>
    <linearGradient
       id="linearGradient5217"
       osb:paint="solid">
      <stop
         style="stop-color:#000000;stop-opacity:1;"
         offset="0"
         id="stop5219" />
    </linearGradient>
    <marker
       inkscape:stockid="TriangleOutM"
       orient="auto"
       refY="0"
       refX="0"
       id="TriangleOutM-5"
       style="overflow:visible">
      <path
         inkscape:connector-curvature="0"
         id="path5828-5"
         d="m 5.77,0 -8.65,5 0,-10 8.65,5 z"
         style="fill-rule:evenodd;stroke:#000000;stroke-width:1pt"
         transform="scale(0.4,0.4)" />
    </marker>
    <marker
       inkscape:stockid="TriangleOutM"
       orient="auto"
       refY="0"
       refX="0"
       id="TriangleOutM-2"
       style="overflow:visible">
      <path
         inkscape:connector-curvature="0"
         id="path5828-8"
         d="m 5.77,0 -8.65,5 0,-10 8.65,5 z"
         style="fill-rule:evenodd;stroke:#000000;stroke-width:1pt"
         transform="scale(0.4,0.4)" />
    </marker>
    <marker
       inkscape:stockid="TriangleOutM"
       orient="auto"
       refY="0"
       refX="0"
       id="TriangleOutM-56"
       style="overflow:visible">
      <path
         inkscape:connector-curvature="0"
         id="path5828-89"
         d="m 5.77,0 -8.65,5 0,-10 8.65,5 z"
         style="fill-rule:evenodd;stroke:#000000;stroke-width:1pt"
         transform="scale(0.4,0.4)" />
    </marker>
    <marker
       inkscape:stockid="TriangleOutM"
       orient="auto"
       refY="0"
       refX="0"
       id="TriangleOutM-8"
       style="overflow:visible">
      <path
         inkscape:connector-curvature="0"
         id="path5828-2"
         d="m 5.77,0 -8.65,5 0,-10 8.65,5 z"
         style="fill-rule:evenodd;stroke:#000000;stroke-width:1pt"
         transform="scale(0.4,0.4)" />
    </marker>
    <marker
       inkscape:stockid="TriangleOutM"
       orient="auto"
       refY="0"
       refX="0"
       id="TriangleOutM-8-0"
       style="overflow:visible">
      <path
         inkscape:connector-curvature="0"
         id="path5828-2-5"
         d="m 5.77,0 -8.65,5 0,-10 8.65,5 z"
         style="fill-rule:evenodd;stroke:#000000;stroke-width:1pt"
         transform="scale(0.4,0.4)" />
    </marker>
    <marker
       inkscape:stockid="TriangleOutM"
       orient="auto"
       refY="0"
       refX="0"
       id="TriangleOutM-8-6"
       style="overflow:visible">
      <path
         inkscape:connector-curvature="0"
         id="path5828-2-9"
         d="m 5.77,0 -8.65,5 0,-10 8.65,5 z"
         style="fill-rule:evenodd;stroke:#000000;stroke-width:1pt"
         transform="scale(0.4,0.4)" />
    </marker>
    <marker
       inkscape:stockid="TriangleOutM"
       orient="auto"
       refY="0"
       refX="0"
       id="TriangleOutM-8-6-2"
       style="overflow:visible">
      <path
         inkscape:connector-curvature="0"
         id="path5828-2-9-1"
         d="m 5.77,0 -8.65,5 0,-10 8.65,5 z"
         style="fill-rule:evenodd;stroke:#000000;stroke-width:1pt"
         transform="scale(0.4,0.4)" />
    </marker>
    <marker
       inkscape:stockid="DotM"
       orient="auto"
       refY="0"
       refX="0"
       id="DotM-0"
       style="overflow:visible">
      <path
         inkscape:connector-curvature="0"
         id="path5747-9"
         d="m -2.5,-1 c 0,2.76 -2.24,5 -5,5 -2.76,0 -5,-2.24 -5,-5 0,-2.76 2.24,-5 5,-5 2.76,0 5,2.24 5,5 z"
         style="fill-rule:evenodd;stroke:#000000;stroke-width:1pt"
         transform="matrix(0.4,0,0,0.4,2.96,0.4)" />
    </marker>
    <marker
       inkscape:stockid="DotM"
       orient="auto"
       refY="0"
       refX="0"
       id="DotM-0-9"
       style="overflow:visible">
      <path
         inkscape:connector-curvature="0"
         id="path5747-9-1"
         d="m -2.5,-1 c 0,2.76 -2.24,5 -5,5 -2.76,0 -5,-2.24 -5,-5 0,-2.76 2.24,-5 5,-5 2.76,0 5,2.24 5,5 z"
         style="fill-rule:evenodd;stroke:#000000;stroke-width:1pt"
         transform="matrix(0.4,0,0,0.4,2.96,0.4)" />
    </marker>
    <marker
       inkscape:stockid="DotM"
       orient="auto"
       refY="0"
       refX="0"
       id="DotM-0-4"
       style="overflow:visible">
      <path
         inkscape:connector-curvature="0"
         id="path5747-9-2"
         d="m -2.5,-1 c 0,2.76 -2.24,5 -5,5 -2.76,0 -5,-2.24 -5,-5 0,-2.76 2.24,-5 5,-5 2.76,0 5,2.24 5,5 z"
         style="fill-rule:evenodd;stroke:#000000;stroke-width:1pt"
         transform="matrix(0.4,0,0,0.4,2.96,0.4)" />
    </marker>
    <marker
       inkscape:stockid="TriangleOutM"
       orient="auto"
       refY="0"
       refX="0"
       id="TriangleOutM-7"
       style="overflow:visible">
      <path
         inkscape:connector-curvature="0"
         id="path5828-4"
         d="m 5.77,0 -8.65,5 0,-10 8.65,5 z"
         style="fill-rule:evenodd;stroke:#000000;stroke-width:1pt"
         transform="scale(0.4,0.4)" />
    </marker>
    <marker
       inkscape:stockid="TriangleOutM"
       orient="auto"
       refY="0"
       refX="0"
       id="TriangleOutM-8-6-20"
       style="overflow:visible">
      <path
         inkscape:connector-curvature="0"
         id="path5828-2-9-8"
         d="m 5.77,0 -8.65,5 0,-10 8.65,5 z"
         style="fill-rule:evenodd;stroke:#000000;stroke-width:1pt"
         transform="scale(0.4,0.4)" />
    </marker>
    <marker
       inkscape:stockid="DotM"
       orient="auto"
       refY="0"
       refX="0"
       id="DotM-0-4-7"
       style="overflow:visible">
      <path
         inkscape:connector-curvature="0"
         id="path5747-9-2-9"
         d="m -2.5,-1 c 0,2.76 -2.24,5 -5,5 -2.76,0 -5,-2.24 -5,-5 0,-2.76 2.24,-5 5,-5 2.76,0 5,2.24 5,5 z"
         style="fill-rule:evenodd;stroke:#000000;stroke-width:1pt"
         transform="matrix(0.4,0,0,0.4,2.96,0.4)" />
    </marker>
    <marker
       inkscape:stockid="DotM"
       orient="auto"
       refY="0"
       refX="0"
       id="DotM-0-4-6"
       style="overflow:visible">
      <path
         inkscape:connector-curvature="0"
         id="path5747-9-2-1"
         d="m -2.5,-1 c 0,2.76 -2.24,5 -5,5 -2.76,0 -5,-2.24 -5,-5 0,-2.76 2.24,-5 5,-5 2.76,0 5,2.24 5,5 z"
         style="fill-rule:evenodd;stroke:#000000;stroke-width:1pt"
         transform="matrix(0.4,0,0,0.4,2.96,0.4)" />
    </marker>
    <marker
       inkscape:stockid="TriangleOutM"
       orient="auto"
       refY="0"
       refX="0"
       id="TriangleOutM-8-6-20-3"
       style="overflow:visible">
      <path
         inkscape:connector-curvature="0"
         id="path5828-2-9-8-5"
         d="m 5.77,0 -8.65,5 0,-10 8.65,5 z"
         style="fill-rule:evenodd;stroke:#000000;stroke-width:1pt"
         transform="scale(0.4,0.4)" />
    </marker>
    <marker
       inkscape:stockid="DotM"
       orient="auto"
       refY="0"
       refX="0"
       id="DotM-0-4-1"
       style="overflow:visible">
      <path
         inkscape:connector-curvature="0"
         id="path5747-9-2-6"
         d="m -2.5,-1 c 0,2.76 -2.24,5 -5,5 -2.76,0 -5,-2.24 -5,-5 0,-2.76 2.24,-5 5,-5 2.76,0 5,2.24 5,5 z"
         style="fill-rule:evenodd;stroke:#000000;stroke-width:1pt"
         transform="matrix(0.4,0,0,0.4,2.96,0.4)" />
    </marker>
    <marker
       inkscape:stockid="DotM"
       orient="auto"
       refY="0"
       refX="0"
       id="DotM-0-4-0"
       style="overflow:visible">
      <path
         inkscape:connector-curvature="0"
         id="path5747-9-2-8"
         d="m -2.5,-1 c 0,2.76 -2.24,5 -5,5 -2.76,0 -5,-2.24 -5,-5 0,-2.76 2.24,-5 5,-5 2.76,0 5,2.24 5,5 z"
         style="fill-rule:evenodd;stroke:#000000;stroke-width:1pt"
         transform="matrix(0.4,0,0,0.4,2.96,0.4)" />
    </marker>
    <marker
       inkscape:stockid="TriangleOutM"
       orient="auto"
       refY="0"
       refX="0"
       id="TriangleOutM-8-6-20-0"
       style="overflow:visible">
      <path
         inkscape:connector-curvature="0"
         id="path5828-2-9-8-8"
         d="m 5.77,0 -8.65,5 0,-10 8.65,5 z"
         style="fill-rule:evenodd;stroke:#000000;stroke-width:1pt"
         transform="scale(0.4,0.4)" />
    </marker>
    <marker
       inkscape:stockid="TriangleOutM"
       orient="auto"
       refY="0"
       refX="0"
       id="TriangleOutM-59"
       style="overflow:visible">
      <path
         inkscape:connector-curvature="0"
         id="path5828-3"
         d="m 5.77,0 -8.65,5 0,-10 8.65,5 z"
         style="fill-rule:evenodd;stroke:#000000;stroke-width:1pt"
         transform="scale(0.4,0.4)" />
    </marker>
    <marker
       inkscape:stockid="TriangleOutM"
       orient="auto"
       refY="0"
       refX="0"
       id="marker11478"
       style="overflow:visible">
      <path
         inkscape:connector-curvature="0"
         id="path11480"
         d="m 5.77,0 -8.65,5 0,-10 8.65,5 z"
         style="fill-rule:evenodd;stroke:#000000;stroke-width:1pt"
         transform="scale(0.4,0.4)" />
    </marker>
    <marker
       inkscape:stockid="TriangleOutM"
       orient="auto"
       refY="0"
       refX="0"
       id="marker11482"
       style="overflow:visible">
      <path
         inkscape:connector-curvature="0"
         id="path11484"
         d="m 5.77,0 -8.65,5 0,-10 8.65,5 z"
         style="fill-rule:evenodd;stroke:#000000;stroke-width:1pt"
         transform="scale(0.4,0.4)" />
    </marker>
    <marker
       inkscape:stockid="TriangleOutM"
       orient="auto"
       refY="0"
       refX="0"
       id="TriangleOutM-8-8"
       style="overflow:visible">
      <path
         inkscape:connector-curvature="0"
         id="path5828-2-6"
         d="m 5.77,0 -8.65,5 0,-10 8.65,5 z"
         style="fill-rule:evenodd;stroke:#000000;stroke-width:1pt"
         transform="scale(0.4,0.4)" />
    </marker>
    <marker
       inkscape:stockid="DotM"
       orient="auto"
       refY="0"
       refX="0"
       id="DotM-3"
       style="overflow:visible">
      <path
         inkscape:connector-curvature="0"
         id="path5747-5"
         d="m -2.5,-1 c 0,2.76 -2.24,5 -5,5 -2.76,0 -5,-2.24 -5,-5 0,-2.76 2.24,-5 5,-5 2.76,0 5,2.24 5,5 z"
         style="fill-rule:evenodd;stroke:#000000;stroke-width:1pt"
         transform="matrix(0.4,0,0,0.4,2.96,0.4)" />
    </marker>
    <marker
       inkscape:stockid="TriangleOutM"
       orient="auto"
       refY="0"
       refX="0"
       id="marker11490"
       style="overflow:visible">
      <path
         inkscape:connector-curvature="0"
         id="path11492"
         d="m 5.77,0 -8.65,5 0,-10 8.65,5 z"
         style="fill-rule:evenodd;stroke:#000000;stroke-width:1pt"
         transform="scale(0.4,0.4)" />
    </marker>
    <marker
       inkscape:stockid="DotM"
       orient="auto"
       refY="0"
       refX="0"
       id="DotM-0-7"
       style="overflow:visible">
      <path
         inkscape:connector-curvature="0"
         id="path5747-9-5"
         d="m -2.5,-1 c 0,2.76 -2.24,5 -5,5 -2.76,0 -5,-2.24 -5,-5 0,-2.76 2.24,-5 5,-5 2.76,0 5,2.24 5,5 z"
         style="fill-rule:evenodd;stroke:#000000;stroke-width:1pt"
         transform="matrix(0.4,0,0,0.4,2.96,0.4)" />
    </marker>
    <marker
       inkscape:stockid="DotM"
       orient="auto"
       refY="0"
       refX="0"
       id="marker11496"
       style="overflow:visible">
      <path
         inkscape:connector-curvature="0"
         id="path11498"
         d="m -2.5,-1 c 0,2.76 -2.24,5 -5,5 -2.76,0 -5,-2.24 -5,-5 0,-2.76 2.24,-5 5,-5 2.76,0 5,2.24 5,5 z"
         style="fill-rule:evenodd;stroke:#000000;stroke-width:1pt"
         transform="matrix(0.4,0,0,0.4,2.96,0.4)" />
    </marker>
    <marker
       inkscape:stockid="TriangleOutM"
       orient="auto"
       refY="0"
       refX="0"
       id="TriangleOutM-8-6-2-6"
       style="overflow:visible">
      <path
         inkscape:connector-curvature="0"
         id="path5828-2-9-1-2"
         d="m 5.77,0 -8.65,5 0,-10 8.65,5 z"
         style="fill-rule:evenodd;stroke:#000000;stroke-width:1pt"
         transform="scale(0.4,0.4)" />
    </marker>
    <marker
       inkscape:stockid="DotM"
       orient="auto"
       refY="0"
       refX="0"
       id="DotM-0-4-4"
       style="overflow:visible">
      <path
         inkscape:connector-curvature="0"
         id="path5747-9-2-5"
         d="m -2.5,-1 c 0,2.76 -2.24,5 -5,5 -2.76,0 -5,-2.24 -5,-5 0,-2.76 2.24,-5 5,-5 2.76,0 5,2.24 5,5 z"
         style="fill-rule:evenodd;stroke:#000000;stroke-width:1pt"
         transform="matrix(0.4,0,0,0.4,2.96,0.4)" />
    </marker>
    <marker
       inkscape:stockid="TriangleOutM"
       orient="auto"
       refY="0"
       refX="0"
       id="TriangleOutM-8-6-20-1"
       style="overflow:visible">
      <path
         inkscape:connector-curvature="0"
         id="path5828-2-9-8-7"
         d="m 5.77,0 -8.65,5 0,-10 8.65,5 z"
         style="fill-rule:evenodd;stroke:#000000;stroke-width:1pt"
         transform="scale(0.4,0.4)" />
    </marker>
    <marker
       inkscape:stockid="DotM"
       orient="auto"
       refY="0"
       refX="0"
       id="marker11506"
       style="overflow:visible">
      <path
         inkscape:connector-curvature="0"
         id="path11508"
         d="m -2.5,-1 c 0,2.76 -2.24,5 -5,5 -2.76,0 -5,-2.24 -5,-5 0,-2.76 2.24,-5 5,-5 2.76,0 5,2.24 5,5 z"
         style="fill-rule:evenodd;stroke:#000000;stroke-width:1pt"
         transform="matrix(0.4,0,0,0.4,2.96,0.4)" />
    </marker>
    <marker
       inkscape:stockid="TriangleOutM"
       orient="auto"
       refY="0"
       refX="0"
       id="marker11510"
       style="overflow:visible">
      <path
         inkscape:connector-curvature="0"
         id="path11512"
         d="m 5.77,0 -8.65,5 0,-10 8.65,5 z"
         style="fill-rule:evenodd;stroke:#000000;stroke-width:1pt"
         transform="scale(0.4,0.4)" />
    </marker>
    <marker
       inkscape:stockid="DotM"
       orient="auto"
       refY="0"
       refX="0"
       id="marker11514"
       style="overflow:visible">
      <path
         inkscape:connector-curvature="0"
         id="path11516"
         d="m -2.5,-1 c 0,2.76 -2.24,5 -5,5 -2.76,0 -5,-2.24 -5,-5 0,-2.76 2.24,-5 5,-5 2.76,0 5,2.24 5,5 z"
         style="fill-rule:evenodd;stroke:#000000;stroke-width:1pt"
         transform="matrix(0.4,0,0,0.4,2.96,0.4)" />
    </marker>
    <linearGradient
       inkscape:collect="always"
       xlink:href="#linearGradient9383"
       id="linearGradient3210"
       gradientUnits="userSpaceOnUse"
       x1="128.8104"
       y1="430.59479"
       x2="261.30111"
       y2="430.59479" />
    <linearGradient
       inkscape:collect="always"
       xlink:href="#linearGradient9399"
       id="linearGradient3216"
       gradientUnits="userSpaceOnUse"
       x1="128.8104"
       y1="430.59479"
       x2="261.30111"
       y2="430.59479" />
    <linearGradient
       inkscape:collect="always"
       xlink:href="#linearGradient9373"
       id="linearGradient3233"
       gradientUnits="userSpaceOnUse"
       x1="128.81039"
       y1="430.59479"
       x2="261.30112"
       y2="430.59479" />
    <linearGradient
       inkscape:collect="always"
       xlink:href="#linearGradient9391"
       id="linearGradient3267"
       gradientUnits="userSpaceOnUse"
       x1="128.8104"
       y1="430.59479"
       x2="261.30111"
       y2="430.59479" />
    <linearGradient
       inkscape:collect="always"
       xlink:href="#linearGradient9399"
       id="linearGradient3292"
       gradientUnits="userSpaceOnUse"
       x1="128.8104"
       y1="430.59479"
       x2="261.30111"
       y2="430.59479" />
    <linearGradient
       inkscape:collect="always"
       xlink:href="#linearGradient9373"
       id="linearGradient3294"
       gradientUnits="userSpaceOnUse"
       x1="128.81039"
       y1="430.59479"
       x2="261.30112"
       y2="430.59479" />
    <linearGradient
       inkscape:collect="always"
       xlink:href="#linearGradient9383"
       id="linearGradient3296"
       gradientUnits="userSpaceOnUse"
       x1="128.8104"
       y1="430.59479"
       x2="261.30111"
       y2="430.59479" />
    <marker
       inkscape:stockid="TriangleOutM"
       orient="auto"
       refY="0"
       refX="0"
       id="marker11510-8"
       style="overflow:visible">
      <path
         inkscape:connector-curvature="0"
         id="path11512-9"
         d="m 5.77,0 -8.65,5 0,-10 8.65,5 z"
         style="fill-rule:evenodd;stroke:#000000;stroke-width:1pt"
         transform="scale(0.4,0.4)" />
    </marker>
    <marker
       inkscape:stockid="TriangleOutM"
       orient="auto"
       refY="0"
       refX="0"
       id="marker11510-5"
       style="overflow:visible">
      <path
         inkscape:connector-curvature="0"
         id="path11512-1"
         d="m 5.77,0 -8.65,5 0,-10 8.65,5 z"
         style="fill-rule:evenodd;stroke:#000000;stroke-width:1pt"
         transform="scale(0.4,0.4)" />
    </marker>
    <marker
       inkscape:stockid="TriangleOutM"
       orient="auto"
       refY="0"
       refX="0"
       id="marker4580"
       style="overflow:visible">
      <path
         inkscape:connector-curvature="0"
         id="path4582"
         d="m 5.77,0 -8.65,5 0,-10 8.65,5 z"
         style="fill-rule:evenodd;stroke:#000000;stroke-width:1pt"
         transform="scale(0.4,0.4)" />
    </marker>
    <marker
       inkscape:stockid="DotM"
       orient="auto"
       refY="0"
       refX="0"
       id="marker11514-8"
       style="overflow:visible">
      <path
         inkscape:connector-curvature="0"
         id="path11516-1"
         d="m -2.5,-1 c 0,2.76 -2.24,5 -5,5 -2.76,0 -5,-2.24 -5,-5 0,-2.76 2.24,-5 5,-5 2.76,0 5,2.24 5,5 z"
         style="fill-rule:evenodd;stroke:#000000;stroke-width:1pt"
         transform="matrix(0.4,0,0,0.4,2.96,0.4)" />
    </marker>
    <linearGradient
       inkscape:collect="always"
       xlink:href="#linearGradient9383"
       id="linearGradient5337"
       gradientUnits="userSpaceOnUse"
       x1="128.8104"
       y1="430.59479"
       x2="261.30111"
       y2="430.59479" />
    <linearGradient
       inkscape:collect="always"
       xlink:href="#linearGradient9373"
       id="linearGradient5339"
       gradientUnits="userSpaceOnUse"
       x1="128.81039"
       y1="430.59479"
       x2="261.30112"
       y2="430.59479" />
    <linearGradient
       inkscape:collect="always"
       xlink:href="#linearGradient9399"
       id="linearGradient5341"
       gradientUnits="userSpaceOnUse"
       x1="128.8104"
       y1="430.59479"
       x2="261.30111"
       y2="430.59479" />
    <linearGradient
       inkscape:collect="always"
       xlink:href="#linearGradient9391"
       id="linearGradient5343"
       gradientUnits="userSpaceOnUse"
       x1="128.8104"
       y1="430.59479"
       x2="261.30111"
       y2="430.59479" />
  </defs>
  <sodipodi:namedview
     id="base"
     pagecolor="#ffffff"
     bordercolor="#666666"
     borderopacity="1.0"
     inkscape:pageopacity="0.0"
     inkscape:pageshadow="2"
     inkscape:zoom="1"
     inkscape:cx="213"
     inkscape:cy="695"
     inkscape:document-units="mm"
     inkscape:current-layer="layer1"
     showgrid="false"
     showguides="true"
     inkscape:guide-bbox="true"
     inkscape:window-width="1366"
     inkscape:window-height="718"
     inkscape:window-x="-2"
     inkscape:window-y="-3"
     inkscape:window-maximized="1" />
  <metadata
     id="metadata7">
    <rdf:RDF>
      <cc:Work
         rdf:about="">
        <dc:format>image/svg+xml</dc:format>
        <dc:type
           rdf:resource="http://purl.org/dc/dcmitype/StillImage" />
        <dc:title />
      </cc:Work>
    </rdf:RDF>
  </metadata>
  <g
     inkscape:label="Layer 1"
     inkscape:groupmode="layer"
     id="layer1"
     transform="translate(0,-62.362183)">
    <text
       xml:space="preserve"
       style="font-size:39.89555359px;font-style:normal;font-weight:normal;line-height:125%;letter-spacing:0px;word-spacing:0px;fill:#000000;fill-opacity:1;stroke:none;font-family:Sans"
       x="80.394287"
       y="246.72955"
       id="text9411"
       sodipodi:linespacing="125%"><tspan
         y="246.72955"
         x="80.394287"
         sodipodi:role="line"
         id="tspan9413" /></text>
    <text
       xml:space="preserve"
       style="font-size:150px;font-style:normal;font-weight:bold;line-height:125%;letter-spacing:0px;word-spacing:0px;fill:#000000;fill-opacity:1;stroke:none;font-family:Sans;-inkscape-font-specification:Sans Bold"
       x="164"
       y="199"
       id="text3238"
       sodipodi:linespacing="125%"
       transform="translate(0,62.362183)"><tspan
         sodipodi:role="line"
         id="tspan3240"
         x="164"
         y="199" /></text>
    <text
       xml:space="preserve"
       style="font-size:80px;font-style:normal;font-weight:bold;line-height:125%;letter-spacing:0px;word-spacing:0px;fill:#000000;fill-opacity:1;stroke:none;font-family:Sans;-inkscape-font-specification:Sans Bold"
       x="158"
       y="190"
       id="text3242"
       sodipodi:linespacing="125%"
       transform="translate(0,62.362183)"><tspan
         sodipodi:role="line"
         id="tspan3244"
         x="158"
         y="190" /></text>
    <path
       sodipodi:type="arc"
       style="fill:#000000;stroke:none;stroke-width:3.54330707000000000;stroke-miterlimit:4;stroke-opacity:1;stroke-dasharray:none;fill-opacity:1;opacity:0.17"
       id="path3135"
       sodipodi:cx="426.5"
       sodipodi:cy="357.5"
       sodipodi:rx="226.5"
       sodipodi:ry="226.5"
       d="m 653,357.5 a 226.5,226.5 0 1 1 -453,0 226.5,226.5 0 1 1 453,0 z"
       transform="translate(-36.323845,10.801859)" />
    <g
       id="g3137">
      <path
         sodipodi:open="true"
         sodipodi:end="5.8898838"
         sodipodi:start="3.5298847"
         transform="matrix(0.39895555,0,0,0.39895555,233.60017,141.575)"
         d="m 241.5254,290.33422 c 32.32103,-25.39703 122.57509,-37.56352 201.58807,-27.17462 38.13203,5.01373 68.4592,14.71304 84.2483,26.94449"
         sodipodi:ry="49.684013"
         sodipodi:rx="154.57249"
         sodipodi:cy="309.14499"
         sodipodi:cx="384.59106"
         id="path6693"
         style="fill:none;stroke:#ff0000;stroke-width:8.88145828;stroke-miterlimit:4;stroke-opacity:1;stroke-dasharray:none;marker-end:url(#TriangleOutM)"
         sodipodi:type="arc" />
      <path
         sodipodi:open="true"
         sodipodi:end="5.8898838"
         sodipodi:start="3.5298847"
         transform="matrix(0,0.39895555,0.39895555,0,158.84926,210.57581)"
         d="m 241.5254,290.33422 c 32.32103,-25.39703 122.57509,-37.56352 201.58807,-27.17462 38.13203,5.01373 68.4592,14.71304 84.2483,26.94449"
         sodipodi:ry="49.684013"
         sodipodi:rx="154.57249"
         sodipodi:cy="309.14499"
         sodipodi:cx="384.59106"
         id="path6693-1-5"
         style="fill:none;stroke:#ff0000;stroke-width:8.88145828;stroke-miterlimit:4;stroke-opacity:1;stroke-dasharray:none;marker-end:url(#TriangleOutM)"
         sodipodi:type="arc" />
      <path
         sodipodi:open="true"
         sodipodi:end="5.8898838"
         sodipodi:start="3.5298847"
         transform="matrix(0,0.39895555,-0.39895555,0,623.89125,209.50094)"
         d="m 241.5254,290.33422 c 32.32103,-25.39703 122.57509,-37.56352 201.58807,-27.17462 38.13203,5.01373 68.4592,14.71304 84.2483,26.94449"
         sodipodi:ry="49.684013"
         sodipodi:rx="154.57249"
         sodipodi:cy="309.14499"
         sodipodi:cx="384.59106"
         id="path6693-1-5-4"
         style="fill:none;stroke:#ff0000;stroke-width:8.88145828;stroke-miterlimit:4;stroke-opacity:1;stroke-dasharray:none;marker-end:url(#TriangleOutM)"
         sodipodi:type="arc" />
      <path
         sodipodi:open="true"
         sodipodi:end="6.9612602"
         sodipodi:start="2.2830427"
         transform="matrix(0.22084734,-0.3322529,0.3322529,0.22084734,-117.70321,184.02371)"
         d="m 389.73511,878.7265 c -17.30751,-14.94403 -19.22349,-41.08907 -4.27945,-58.39658 14.94403,-17.3075 41.08907,-19.22348 58.39658,-4.27945 16.89077,14.58421 19.18422,39.93095 5.1856,57.31013"
         sodipodi:ry="41.403347"
         sodipodi:rx="41.403347"
         sodipodi:cy="847.38849"
         sodipodi:cx="416.79367"
         id="path7575"
         style="fill:none;stroke:#ff0000;stroke-width:8.88145828;stroke-miterlimit:4;stroke-opacity:1;stroke-dasharray:none;marker-end:url(#TriangleOutM-8)"
         sodipodi:type="arc" />
      <path
         sodipodi:open="true"
         sodipodi:end="6.9612602"
         sodipodi:start="2.2830427"
         transform="matrix(-0.35430193,-0.18340031,0.18340031,-0.35430193,252.76826,883.1804)"
         d="m 389.73511,878.7265 c -17.30751,-14.94403 -19.22349,-41.08907 -4.27945,-58.39658 14.94403,-17.3075 41.08907,-19.22348 58.39658,-4.27945 16.89077,14.58421 19.18422,39.93095 5.1856,57.31013"
         sodipodi:ry="41.403347"
         sodipodi:rx="41.403347"
         sodipodi:cy="847.38849"
         sodipodi:cx="416.79367"
         id="path7575-9"
         style="fill:none;stroke:#0100ff;stroke-width:8.88145828;stroke-miterlimit:4;stroke-opacity:1;stroke-dasharray:none;marker-end:url(#DotM)"
         sodipodi:type="arc" />
      <path
         sodipodi:open="true"
         sodipodi:end="6.9612602"
         sodipodi:start="2.2830427"
         transform="matrix(-0.18066778,-0.35570308,-0.35570308,0.18066778,906.93277,229.63947)"
         d="m 389.73511,878.7265 c -17.30751,-14.94403 -19.22349,-41.08907 -4.27945,-58.39658 14.94403,-17.3075 41.08907,-19.22348 58.39658,-4.27945 16.89077,14.58421 19.18422,39.93095 5.1856,57.31013"
         sodipodi:ry="41.403347"
         sodipodi:rx="41.403347"
         sodipodi:cy="847.38849"
         sodipodi:cx="416.79367"
         id="path7575-7"
         style="fill:none;stroke:#ff0000;stroke-width:8.88145828;stroke-miterlimit:4;stroke-opacity:1;stroke-dasharray:none;marker-end:url(#TriangleOutM-8)"
         sodipodi:type="arc" />
      <path
         sodipodi:open="true"
         sodipodi:end="4.3047442"
         sodipodi:start="1.9808256"
         transform="matrix(0.39832252,-0.02246551,0.02246551,0.39832252,246.73929,154.14113)"
         d="m -15.895106,734.85087 c -42.40806,-47.19746 -61.843409,-173.48269 -43.410067,-282.06596 8.4793,-49.94808 24.065474,-89.76049 43.593259,-111.35206"
         sodipodi:ry="214.37732"
         sodipodi:rx="83.726768"
         sodipodi:cy="538.24347"
         sodipodi:cx="17.481413"
         id="path8268"
         style="fill:none;stroke:#0300ff;stroke-width:8.88145828;stroke-miterlimit:4;stroke-opacity:1;stroke-dasharray:none;marker-end:url(#DotM-0)"
         sodipodi:type="arc" />
      <path
         sodipodi:open="true"
         sodipodi:end="4.3047442"
         sodipodi:start="1.9808256"
         transform="matrix(-0.39832252,-0.02246551,-0.02246551,0.39832252,533.61302,149.68483)"
         d="m -15.895106,734.85087 c -42.40806,-47.19746 -61.843409,-173.48269 -43.410067,-282.06596 8.4793,-49.94808 24.065474,-89.76049 43.593259,-111.35206"
         sodipodi:ry="214.37732"
         sodipodi:rx="83.726768"
         sodipodi:cy="538.24347"
         sodipodi:cx="17.481413"
         id="path8268-5"
         style="fill:none;stroke:#0300ff;stroke-width:8.88145828;stroke-miterlimit:4;stroke-opacity:1;stroke-dasharray:none;marker-end:url(#DotM-0)"
         sodipodi:type="arc" />
      <path
         sodipodi:open="true"
         sodipodi:end="4.3047442"
         sodipodi:start="1.9808256"
         transform="matrix(-3.3004024e-4,0.39895541,0.39895541,3.3004024e-4,184.42073,239.83219)"
         d="m -15.895106,734.85087 c -42.40806,-47.19746 -61.843409,-173.48269 -43.410067,-282.06596 8.4793,-49.94808 24.065474,-89.76049 43.593259,-111.35206"
         sodipodi:ry="214.37732"
         sodipodi:rx="83.726768"
         sodipodi:cy="538.24347"
         sodipodi:cx="17.481413"
         id="path8268-9"
         style="fill:none;stroke:#ff0000;stroke-width:8.88145828;stroke-miterlimit:4;stroke-opacity:1;stroke-dasharray:none;marker-end:url(#TriangleOutM-8-6-2)"
         sodipodi:type="arc" />
      <path
         sodipodi:open="true"
         sodipodi:end="5.8898838"
         sodipodi:start="3.5298847"
         transform="matrix(-0.39895555,0,0,-0.39895555,548.71184,591.3528)"
         d="m 241.5254,290.33422 c 32.32103,-25.39703 122.57509,-37.56352 201.58807,-27.17462 38.13203,5.01373 68.4592,14.71304 84.2483,26.94449"
         sodipodi:ry="49.684013"
         sodipodi:rx="154.57249"
         sodipodi:cy="309.14499"
         sodipodi:cx="384.59106"
         id="path6693-1-5-4-3"
         style="fill:none;stroke:#0002ff;stroke-width:8.88145828;stroke-miterlimit:4;stroke-opacity:1;stroke-dasharray:none;marker-end:url(#DotM-0-4)"
         sodipodi:type="arc" />
      <g
         transform="translate(113.20241,5.4793685)"
         id="g3272">
        <path
           sodipodi:type="arc"
           style="fill:url(#linearGradient5343);fill-opacity:1;fill-rule:evenodd;stroke:none"
           id="path2993"
           sodipodi:cx="195.05576"
           sodipodi:cy="430.59479"
           sodipodi:rx="66.245354"
           sodipodi:ry="66.245354"
           d="m 261.30111,430.59479 c 0,36.5863 -29.65906,66.24535 -66.24535,66.24535 -36.5863,0 -66.24536,-29.65905 -66.24536,-66.24535 0,-36.5863 29.65906,-66.24536 66.24536,-66.24536 36.58629,0 66.24535,29.65906 66.24535,66.24536 z"
           transform="matrix(0.59843332,0,0,0.59843332,61.613988,8.507654)" />
        <text
           xml:space="preserve"
           style="font-size:60px;font-style:normal;font-weight:bold;line-height:125%;letter-spacing:0px;word-spacing:0px;fill:#000000;fill-opacity:1;stroke:none;font-family:Sans;-inkscape-font-specification:Sans Bold"
           x="159.16705"
           y="282.56686"
           id="text3246"
           sodipodi:linespacing="125%"><tspan
             sodipodi:role="line"
             id="tspan3248"
             x="159.16705"
             y="282.56686">a</tspan></text>
      </g>
      <g
         transform="translate(-36.70241,79.520632)"
         id="g3277">
        <path
           sodipodi:type="arc"
           style="fill:url(#linearGradient5341);fill-opacity:1;fill-rule:evenodd;stroke:none"
           id="path2993-8"
           sodipodi:cx="195.05576"
           sodipodi:cy="430.59479"
           sodipodi:rx="66.245354"
           sodipodi:ry="66.245354"
           d="m 261.30111,430.59479 c 0,36.5863 -29.65906,66.24535 -66.24535,66.24535 -36.5863,0 -66.24536,-29.65905 -66.24536,-66.24535 0,-36.5863 29.65906,-66.24536 66.24536,-66.24536 36.58629,0 66.24535,29.65906 66.24535,66.24536 z"
           transform="matrix(0.59843332,0,0,0.59843332,409.84686,-65.533609)" />
        <text
           xml:space="preserve"
           style="font-size:60px;font-style:normal;font-weight:bold;line-height:125%;letter-spacing:0px;word-spacing:0px;fill:#000000;fill-opacity:1;stroke:none;font-family:Sans;-inkscape-font-specification:Sans Bold"
           x="503.92825"
           y="214.51683"
           id="text3250"
           sodipodi:linespacing="125%"><tspan
             sodipodi:role="line"
             id="tspan3252"
             x="503.92825"
             y="214.51683">b</tspan></text>
      </g>
      <g
         transform="translate(175.79759,-27.21463)"
         id="g3282">
        <path
           sodipodi:type="arc"
           style="fill:url(#linearGradient5339);fill-opacity:1;fill-rule:evenodd;stroke:none"
           id="path2993-4"
           sodipodi:cx="195.05576"
           sodipodi:cy="430.59479"
           sodipodi:rx="66.245354"
           sodipodi:ry="66.245354"
           d="m 261.30111,430.59479 c 0,36.5863 -29.65906,66.24535 -66.24535,66.24535 -36.5863,0 -66.24536,-29.65905 -66.24536,-66.24535 0,-36.5863 29.65906,-66.24536 66.24536,-66.24536 36.58629,0 66.24535,29.65906 66.24535,66.24536 z"
           transform="matrix(0.59843332,0,0,0.59843332,-0.981188,234.2521)" />
        <text
           xml:space="preserve"
           style="font-size:60px;font-style:normal;font-weight:bold;line-height:125%;letter-spacing:0px;word-spacing:0px;fill:#000000;fill-opacity:1;stroke:none;font-family:Sans;-inkscape-font-specification:Sans Bold"
           x="105.46347"
           y="514.72736"
           id="text3254"
           sodipodi:linespacing="125%"><tspan
             sodipodi:role="line"
             id="tspan3256"
             x="105.46347"
             y="514.72736">i</tspan></text>
      </g>
      <g
         transform="translate(-51.29759,-121.78537)"
         id="g3287">
        <path
           sodipodi:type="arc"
           style="fill:url(#linearGradient5337);fill-opacity:1;fill-rule:evenodd;stroke:none"
           id="path2993-7"
           sodipodi:cx="195.05576"
           sodipodi:cy="430.59479"
           sodipodi:rx="66.245354"
           sodipodi:ry="66.245354"
           d="m 261.30111,430.59479 c 0,36.5863 -29.65906,66.24535 -66.24535,66.24535 -36.5863,0 -66.24536,-29.65905 -66.24536,-66.24535 0,-36.5863 29.65906,-66.24536 66.24536,-66.24536 36.58629,0 66.24535,29.65906 66.24535,66.24536 z"
           transform="matrix(0.59843332,0,0,0.59843332,424.44204,328.82284)" />
        <text
           xml:space="preserve"
           style="font-size:60px;font-style:normal;font-weight:bold;line-height:125%;letter-spacing:0px;word-spacing:0px;fill:#000000;fill-opacity:1;stroke:none;font-family:Sans;-inkscape-font-specification:Sans Bold"
           x="523.18164"
           y="602.88208"
           id="text3258"
           sodipodi:linespacing="125%"><tspan
             sodipodi:role="line"
             id="tspan3260"
             x="523.18164"
             y="602.88208">s</tspan></text>
      </g>
      <path
         inkscape:connector-curvature="0"
         id="path4288"
         d="m 325,291.36218 136,132"
         style="fill:none;stroke:#ff0000;stroke-width:3.54330707;stroke-linecap:butt;stroke-linejoin:miter;stroke-miterlimit:4;stroke-opacity:1;stroke-dasharray:none;marker-end:url(#marker11510)" />
      <path
         inkscape:connector-curvature="0"
         id="path4288-0"
         d="m 456.49125,291.95723 -136,131.99999"
         style="fill:none;stroke:#ff0000;stroke-width:3.54330707;stroke-linecap:butt;stroke-linejoin:miter;stroke-miterlimit:4;stroke-opacity:1;stroke-dasharray:none;marker-end:url(#marker11510)" />
      <path
         inkscape:connector-curvature="0"
         id="path4863"
         d="m 325,443.46281 136,-133"
         style="fill:none;stroke:#0100ff;stroke-width:3.54330707;stroke-linecap:butt;stroke-linejoin:miter;stroke-miterlimit:4;stroke-opacity:1;stroke-dasharray:none;marker-end:url(#marker11514)" />
      <path
         inkscape:connector-curvature="0"
         id="path4863-7"
         d="M 456.54919,441.91249 320.5492,308.9125"
         style="fill:none;stroke:#0100ff;stroke-width:3.54330707;stroke-linecap:butt;stroke-linejoin:miter;stroke-miterlimit:4;stroke-opacity:1;stroke-dasharray:none;marker-end:url(#marker11514)" />
    </g>
    <text
       xml:space="preserve"
       style="font-size:100px;font-style:normal;font-weight:bold;line-height:125%;letter-spacing:0px;word-spacing:0px;fill:#000000;fill-opacity:1;stroke:none;font-family:Sans;-inkscape-font-specification:Sans Bold"
       x="430"
       y="486"
       id="text4183"
       sodipodi:linespacing="125%"
       transform="translate(0,62.362183)"><tspan
         sodipodi:role="line"
         id="tspan4185"></tspan></text>
    <text
       xml:space="preserve"
       style="font-size:60px;font-style:normal;font-weight:bold;line-height:125%;letter-spacing:0px;word-spacing:0px;fill:#000000;fill-opacity:1;stroke:none;font-family:Sans;-inkscape-font-specification:Sans Bold"
       x="367.52966"
       y="575.36218"
       id="text4187"
       sodipodi:linespacing="125%"><tspan
         sodipodi:role="line"
         id="tspan4189"
         x="367.52966"
         y="575.36218">p</tspan></text>
  </g>
</svg>
