<!-- Uncomment following when using your own custom external stylesheet.-->
<!--
<?xml-stylesheet type="text/css" href="xppaut-stylesheet.css" ?>
-->
<svg  xmlns="http://www.w3.org/2000/svg"
      xmlns:xlink="http://www.w3.org/1999/xlink" font-size="12pt" width="640" height="400">


      <defs>
          <circle class="xpppointP" id = "xpppointP"  r = "1"  stroke-width = "1"/>
          <circle class="xppbead" id = "xppbead"  r = "1"  stroke-width = "1"/>
          <circle class="xpppointD" id = "xpppointD"  r = "1"  stroke-width = "1"/>
          <circle class="xpppointA" id = "xpppointA"  r = "1"  stroke-width = "1"/>
          <circle class="xpppointB" id = "xpppointB"  r = "1"  stroke-width = "1"/>
          <circle class="xpppointC" id = "xpppointC"  r = "1"  stroke-width = "1"/>
          <circle class="xpppointT" id = "xpppointT"  r = "1"  stroke-width = "1"/>
          <circle class="xpppointS" id = "xpppointS"  r = "1"  stroke-width = "1"/>
          <circle class="xpppointK" id = "xpppointK"  r = "3"  stroke-width = "0.75"/>
          <circle class="xpppointF" id = "xpppointF"  r = "2"  stroke-width = "0"/>
      </defs>



      <!-- Comment out the following style block when using your own custom external stylesheet.-->
      <!-- As a starting point for your custom external stylesheet, consider copying the style 
           information (between but not including CDATA tags) to a file named xppaut-stylesheet.css 
       -->
      <style type="text/css">
           <![CDATA[
      
                 circle.xpppointP {
                    stroke-width: 1.0;
                 }

                 circle.xpppointD {
                    stroke-width: 1.0;
                 }

                 circle.xpppointA {
                    stroke-width: 1.0;
                 }

                 circle.xpppointB {
                    stroke-width: 1.0;
                 }

                 circle.xpppointC {
                    stroke-width: 1.0;
                 }

                 circle.xpppointT {
                    stroke-width: 1.0;
                 }

                 circle.xpppointS {
                    stroke-width: 1.0;
                 }

                 circle.xpppointK {
                    stroke-width: 1.0;
                 }

                 circle.xpppointF {
                    stroke-width: 1.0;
                 }

                 line.xppaxes {
                    stroke: #000000;
                 }
                 line.xppboxaxes {
                    stroke: #000000;
                 }
                 line.xppdfield {
                    stroke: #000000;
                 }
                 line.xpplineb {
                    stroke: #000000;
                 }
                 line.xpplinea {
                    stroke-dasharray: 2,8;
                    stroke-width: 2;
                    stroke: #000000;
                 }
                 line.xppline0 {
                    stroke: #000000;
                 }
                 line.xppline1 {
                    stroke-width: 1;
                    stroke: #FF0000;
                 }
                 line.xppline2 {
                    stroke: #F06400;
                 }
                 line.xppline3 {
                    stroke: #FFA500;
                 }
                 line.xppline4 {
                    stroke: #FFCD00;
                 }
                 line.xppline5 {
                    stroke: #C8C800;
                 }
                 line.xppline6 {
                    stroke: #00FF00;
                 }
                 line.xppline7 {
                    stroke: #32CD32;
                 }
                 line.xppline8 {
                    stroke: #00C8C8;
                 }
                 line.xppline9 {
                    stroke: #0000FF;
                 }
                 line.xpplinec {
                    stroke: #000000;
                 }
                 
                 text.xpptext {
                    font-family: sans-serif;
                    font-size  : 1em;
                    stroke	: #000000;
                    fill	: #000000;
                    baseline-shift:-33%;
                    dominant-baseline: central;
                 }
                 text.xppyaxislabelh {
                    font-family: sans-serif;
                    font-size  : 1em;
                    stroke	: none;
                    fill	: none;
                    baseline-shift:-33%;
                    dominant-baseline: central;
                 }
                 text.xppyaxislabelv {
                    font-family: sans-serif;
                    font-size  : 1em;
                    stroke	: #000000;
                    fill	: #000000;
                    baseline-shift:-33%;
                    dominant-baseline: central;
                 }
                 text.xppaxestext {
                    font-family: sans-serif;
                    font-size  : 1em;
                    stroke	: #000000;
                    fill	: #000000;
                    baseline-shift:-33%;
                    dominant-baseline: central;
                 }
                 
                 text.xpptext0 {
                    font-family: sans-serif;
                    font-size  : 0.5em;
                    stroke	: #000000;
                    fill	: #000000;
                    baseline-shift:-33%;
                    dominant-baseline: central;
                 }
                 
                 text.xpptext1 {
                    font-family: sans-serif;
                    font-size  : 0.75em;
                    stroke	: #000000;
                    fill	: #000000;
                    baseline-shift:-33%;
                    dominant-baseline: central;
                 }
                 
                 text.xpptext2 {
                    font-family: sans-serif;
                    font-size  : 1em;
                    stroke	: #000000;
                    fill	: #000000;
                    baseline-shift:-33%;
                    dominant-baseline: central;
                 }
                 
                 text.xpptext3 {
                    font-family: sans-serif;
                    font-size  : 1.25em;
                    stroke	: #000000;
                    fill	: #000000;
                    baseline-shift:-33%;
                    dominant-baseline: central;
                 }
                 
                 text.xpptext4 {
                    font-family: sans-serif;
                    font-size  : 1.5em;
                    stroke	: #000000;
                    fill	: #000000;
                    baseline-shift:-33%;
                    dominant-baseline: central;
                 }
           ]]>
      </style>

      <line class="xppboxaxes"  x1="144"  y1="51" x2="595"   y2="51" />
      <line class="xppboxaxes"  x1="595"  y1="51" x2="595"   y2="329" />
      <line class="xppaxes"  x1="595"  y1="329" x2="144"   y2="329" />
      <line class="xppaxes"  x1="144"  y1="329" x2="144"   y2="51" />
      <line class="xppaxes"  x1="144"  y1="329" x2="153"   y2="329" />
      <line class="xppboxaxes"  x1="595"  y1="329" x2="586"   y2="329" />

      <text class="xppaxestext" text-anchor="end" x="129"  y="329"
      >0</text>
      <line class="xppaxes"  x1="144"  y1="302" x2="153"   y2="302" />
      <line class="xppboxaxes"  x1="595"  y1="302" x2="586"   y2="302" />

      <text class="xppaxestext" text-anchor="end" x="129"  y="302"
      >5</text>
      <line class="xppaxes"  x1="144"  y1="274" x2="153"   y2="274" />
      <line class="xppboxaxes"  x1="595"  y1="274" x2="586"   y2="274" />

      <text class="xppaxestext" text-anchor="end" x="129"  y="274"
      >10</text>
      <line class="xppaxes"  x1="144"  y1="246" x2="153"   y2="246" />
      <line class="xppboxaxes"  x1="595"  y1="246" x2="586"   y2="246" />

      <text class="xppaxestext" text-anchor="end" x="129"  y="246"
      >15</text>
      <line class="xppaxes"  x1="144"  y1="218" x2="153"   y2="218" />
      <line class="xppboxaxes"  x1="595"  y1="218" x2="586"   y2="218" />

      <text class="xppaxestext" text-anchor="end" x="129"  y="218"
      >20</text>
      <line class="xppaxes"  x1="144"  y1="191" x2="153"   y2="191" />
      <line class="xppboxaxes"  x1="595"  y1="191" x2="586"   y2="191" />

      <text class="xppaxestext" text-anchor="end" x="129"  y="191"
      >25</text>
      <line class="xppaxes"  x1="144"  y1="163" x2="153"   y2="163" />
      <line class="xppboxaxes"  x1="595"  y1="163" x2="586"   y2="163" />

      <text class="xppaxestext" text-anchor="end" x="129"  y="163"
      >30</text>
      <line class="xppaxes"  x1="144"  y1="135" x2="153"   y2="135" />
      <line class="xppboxaxes"  x1="595"  y1="135" x2="586"   y2="135" />

      <text class="xppaxestext" text-anchor="end" x="129"  y="135"
      >35</text>
      <line class="xppaxes"  x1="144"  y1="107" x2="153"   y2="107" />
      <line class="xppboxaxes"  x1="595"  y1="107" x2="586"   y2="107" />

      <text class="xppaxestext" text-anchor="end" x="129"  y="107"
      >40</text>
      <line class="xppaxes"  x1="144"  y1="79" x2="153"   y2="79" />
      <line class="xppboxaxes"  x1="595"  y1="79" x2="586"   y2="79" />

      <text class="xppaxestext" text-anchor="end" x="129"  y="79"
      >45</text>
      <line class="xppaxes"  x1="144"  y1="52" x2="153"   y2="52" />
      <line class="xppboxaxes"  x1="595"  y1="52" x2="586"   y2="52" />

      <text class="xppaxestext" text-anchor="end" x="129"  y="52"
      >50</text>

      <text class="xppyaxislabelv" text-anchor="middle" x="0"  y="0"
      transform="rotate(-90,75,180) translate(75,180)"
      >AMP</text>

      <text class="xppyaxislabelh" text-anchor="end" x="132"  y="12"
      >AMP</text>
      <line class="xppaxes"  x1="144"  y1="329" x2="144"   y2="320" />
      <line class="xppboxaxes"  x1="144"  y1="51" x2="144"   y2="60" />

      <text class="xppaxestext" text-anchor="middle" x="144"  y="354"
      >0</text>
      <line class="xppaxes"  x1="234"  y1="329" x2="234"   y2="320" />
      <line class="xppboxaxes"  x1="234"  y1="51" x2="234"   y2="60" />

      <text class="xppaxestext" text-anchor="middle" x="234"  y="354"
      >0.2</text>
      <line class="xppaxes"  x1="324"  y1="329" x2="324"   y2="320" />
      <line class="xppboxaxes"  x1="324"  y1="51" x2="324"   y2="60" />

      <text class="xppaxestext" text-anchor="middle" x="324"  y="354"
      >0.4</text>
      <line class="xppaxes"  x1="414"  y1="329" x2="414"   y2="320" />
      <line class="xppboxaxes"  x1="414"  y1="51" x2="414"   y2="60" />

      <text class="xppaxestext" text-anchor="middle" x="414"  y="354"
      >0.6</text>
      <line class="xppaxes"  x1="504"  y1="329" x2="504"   y2="320" />
      <line class="xppboxaxes"  x1="504"  y1="51" x2="504"   y2="60" />

      <text class="xppaxestext" text-anchor="middle" x="504"  y="354"
      >0.8</text>
      <line class="xppaxes"  x1="595"  y1="329" x2="595"   y2="320" />
      <line class="xppboxaxes"  x1="595"  y1="51" x2="595"   y2="60" />

      <text class="xppaxestext" text-anchor="middle" x="595"  y="354"
      >1</text>

      <text class="xppaxestext" text-anchor="middle" x="369"  y="379"
      >eta</text>
      <line class="xppline0"  x1="369"  y1="238" x2="369"   y2="238" />
      <line class="xppline0"  x1="369"  y1="238" x2="369"   y2="238" />
      <line class="xppline0"  x1="369"  y1="238" x2="369"   y2="238" />
      <line class="xppline0"  x1="370"  y1="238" x2="369"   y2="238" />
      <line class="xppline0"  x1="370"  y1="238" x2="370"   y2="238" />
      <line class="xppline0"  x1="371"  y1="238" x2="370"   y2="238" />
      <line class="xppline0"  x1="372"  y1="239" x2="371"   y2="238" />
      <line class="xppline0"  x1="374"  y1="239" x2="372"   y2="239" />
      <line class="xppline0"  x1="376"  y1="240" x2="374"   y2="239" />
      <line class="xppline0"  x1="377"  y1="240" x2="376"   y2="240" />
      <line class="xppline0"  x1="379"  y1="241" x2="377"   y2="240" />
      <line class="xppline0"  x1="380"  y1="241" x2="379"   y2="241" />
      <line class="xppline0"  x1="382"  y1="242" x2="380"   y2="241" />
      <line class="xppline0"  x1="384"  y1="242" x2="382"   y2="242" />
      <line class="xppline0"  x1="386"  y1="243" x2="384"   y2="242" />
      <line class="xppline0"  x1="387"  y1="243" x2="386"   y2="243" />
      <line class="xppline0"  x1="389"  y1="244" x2="387"   y2="243" />
      <line class="xppline0"  x1="391"  y1="244" x2="389"   y2="244" />
      <line class="xppline0"  x1="393"  y1="245" x2="391"   y2="244" />
      <line class="xppline0"  x1="395"  y1="245" x2="393"   y2="245" />
      <line class="xppline0"  x1="397"  y1="245" x2="395"   y2="245" />
      <line class="xppline0"  x1="399"  y1="246" x2="397"   y2="245" />
      <line class="xppline0"  x1="401"  y1="246" x2="399"   y2="246" />
      <line class="xppline0"  x1="403"  y1="247" x2="401"   y2="246" />
      <line class="xppline0"  x1="405"  y1="247" x2="403"   y2="247" />
      <line class="xppline0"  x1="407"  y1="248" x2="405"   y2="247" />
      <line class="xppline0"  x1="410"  y1="248" x2="407"   y2="248" />
      <line class="xppline0"  x1="412"  y1="249" x2="410"   y2="248" />
      <line class="xppline0"  x1="414"  y1="249" x2="412"   y2="249" />
      <line class="xppline0"  x1="417"  y1="250" x2="414"   y2="249" />
      <line class="xppline0"  x1="419"  y1="250" x2="417"   y2="250" />
      <line class="xppline0"  x1="422"  y1="251" x2="419"   y2="250" />
      <line class="xppline0"  x1="424"  y1="251" x2="422"   y2="251" />
      <line class="xppline0"  x1="426"  y1="251" x2="424"   y2="251" />
      <line class="xppline0"  x1="429"  y1="252" x2="426"   y2="251" />
      <line class="xppline0"  x1="432"  y1="252" x2="429"   y2="252" />
      <line class="xppline0"  x1="434"  y1="253" x2="432"   y2="252" />
      <line class="xppline0"  x1="437"  y1="253" x2="434"   y2="253" />
      <line class="xppline0"  x1="440"  y1="254" x2="437"   y2="253" />
      <line class="xppline0"  x1="443"  y1="254" x2="440"   y2="254" />
      <line class="xppline0"  x1="446"  y1="255" x2="443"   y2="254" />
      <line class="xppline0"  x1="449"  y1="255" x2="446"   y2="255" />
      <line class="xppline0"  x1="451"  y1="256" x2="449"   y2="255" />
      <line class="xppline0"  x1="454"  y1="256" x2="451"   y2="256" />
      <line class="xppline0"  x1="458"  y1="256" x2="454"   y2="256" />
      <line class="xppline0"  x1="461"  y1="257" x2="458"   y2="256" />
      <line class="xppline0"  x1="464"  y1="257" x2="461"   y2="257" />
      <line class="xppline0"  x1="468"  y1="258" x2="464"   y2="257" />
      <line class="xppline0"  x1="471"  y1="258" x2="468"   y2="258" />
      <line class="xppline0"  x1="474"  y1="259" x2="471"   y2="258" />
      <line class="xppline0"  x1="478"  y1="259" x2="474"   y2="259" />
      <line class="xppline0"  x1="481"  y1="259" x2="478"   y2="259" />
      <line class="xppline0"  x1="485"  y1="260" x2="481"   y2="259" />
      <line class="xppline0"  x1="489"  y1="260" x2="485"   y2="260" />
      <line class="xppline0"  x1="492"  y1="261" x2="489"   y2="260" />
      <line class="xppline0"  x1="496"  y1="261" x2="492"   y2="261" />
      <line class="xppline0"  x1="500"  y1="262" x2="496"   y2="261" />
      <line class="xppline0"  x1="504"  y1="262" x2="500"   y2="262" />
      <line class="xppline0"  x1="508"  y1="263" x2="504"   y2="262" />
      <line class="xppline0"  x1="512"  y1="263" x2="508"   y2="263" />
      <line class="xppline0"  x1="516"  y1="263" x2="512"   y2="263" />
      <line class="xppline0"  x1="520"  y1="264" x2="516"   y2="263" />
      <line class="xppline0"  x1="524"  y1="264" x2="520"   y2="264" />
      <line class="xppline0"  x1="528"  y1="265" x2="524"   y2="264" />
      <line class="xppline0"  x1="532"  y1="265" x2="528"   y2="265" />
      <line class="xppline0"  x1="537"  y1="266" x2="532"   y2="265" />
      <line class="xppline0"  x1="541"  y1="266" x2="537"   y2="266" />
      <line class="xppline0"  x1="546"  y1="266" x2="541"   y2="266" />
      <line class="xppline0"  x1="550"  y1="267" x2="546"   y2="266" />
      <line class="xppline0"  x1="553"  y1="267" x2="550"   y2="267" />
      <line class="xppline0"  x1="555"  y1="267" x2="553"   y2="267" />
      <line class="xppline0"  x1="556"  y1="267" x2="555"   y2="267" />
      <line class="xppline0"  x1="556"  y1="267" x2="556"   y2="267" />
      <line class="xppline0"  x1="557"  y1="267" x2="556"   y2="267" />
      <line class="xppline0"  x1="557"  y1="267" x2="557"   y2="267" />
      <line class="xppline0"  x1="558"  y1="267" x2="557"   y2="267" />
      <line class="xppline0"  x1="559"  y1="267" x2="558"   y2="267" />
      <line class="xppline0"  x1="560"  y1="266" x2="559"   y2="267" />
      <line class="xppline0"  x1="561"  y1="266" x2="560"   y2="266" />
      <line class="xppline0"  x1="562"  y1="265" x2="561"   y2="266" />
      <line class="xppline0"  x1="564"  y1="265" x2="562"   y2="265" />
      <line class="xppline0"  x1="564"  y1="264" x2="564"   y2="265" />
      <line class="xppline0"  x1="565"  y1="264" x2="564"   y2="264" />
      <line class="xppline0"  x1="566"  y1="263" x2="565"   y2="264" />
      <line class="xppline0"  x1="567"  y1="263" x2="566"   y2="263" />
      <line class="xppline0"  x1="567"  y1="262" x2="567"   y2="263" />
      <line class="xppline0"  x1="568"  y1="262" x2="567"   y2="262" />
      <line class="xppline0"  x1="569"  y1="261" x2="568"   y2="262" />
      <line class="xppline0"  x1="569"  y1="261" x2="569"   y2="261" />
      <line class="xppline0"  x1="570"  y1="260" x2="569"   y2="261" />
      <line class="xppline0"  x1="571"  y1="260" x2="570"   y2="260" />
      <line class="xppline0"  x1="571"  y1="259" x2="571"   y2="260" />
      <line class="xppline0"  x1="572"  y1="259" x2="571"   y2="259" />
      <line class="xppline0"  x1="572"  y1="258" x2="572"   y2="259" />
      <line class="xppline0"  x1="573"  y1="258" x2="572"   y2="258" />
      <line class="xppline0"  x1="574"  y1="257" x2="573"   y2="258" />
      <line class="xppline0"  x1="574"  y1="257" x2="574"   y2="257" />
      <line class="xppline0"  x1="575"  y1="256" x2="574"   y2="257" />
      <line class="xppline0"  x1="575"  y1="256" x2="575"   y2="256" />
      <line class="xppline0"  x1="576"  y1="255" x2="575"   y2="256" />
      <line class="xppline0"  x1="577"  y1="255" x2="576"   y2="255" />
      <line class="xppline0"  x1="577"  y1="254" x2="577"   y2="255" />
      <line class="xppline0"  x1="578"  y1="254" x2="577"   y2="254" />
      <line class="xppline0"  x1="579"  y1="253" x2="578"   y2="254" />
      <line class="xppline0"  x1="579"  y1="252" x2="579"   y2="253" />
      <line class="xppline0"  x1="580"  y1="252" x2="579"   y2="252" />
      <line class="xppline0"  x1="580"  y1="251" x2="580"   y2="252" />
      <line class="xppline0"  x1="581"  y1="251" x2="580"   y2="251" />
      <line class="xppline0"  x1="582"  y1="250" x2="581"   y2="251" />
      <line class="xppline0"  x1="582"  y1="250" x2="582"   y2="250" />
      <line class="xppline0"  x1="583"  y1="249" x2="582"   y2="250" />
      <line class="xppline0"  x1="583"  y1="249" x2="583"   y2="249" />
      <line class="xppline0"  x1="584"  y1="248" x2="583"   y2="249" />
      <line class="xppline0"  x1="585"  y1="248" x2="584"   y2="248" />
      <line class="xppline0"  x1="585"  y1="247" x2="585"   y2="248" />
      <line class="xppline0"  x1="586"  y1="247" x2="585"   y2="247" />
      <line class="xppline0"  x1="587"  y1="246" x2="586"   y2="247" />
      <line class="xppline0"  x1="587"  y1="246" x2="587"   y2="246" />
      <line class="xppline0"  x1="588"  y1="245" x2="587"   y2="246" />
      <line class="xppline0"  x1="589"  y1="245" x2="588"   y2="245" />
      <line class="xppline0"  x1="589"  y1="244" x2="589"   y2="245" />
      <line class="xppline0"  x1="590"  y1="244" x2="589"   y2="244" />
      <line class="xppline0"  x1="591"  y1="243" x2="590"   y2="244" />
      <line class="xppline0"  x1="591"  y1="243" x2="591"   y2="243" />
      <line class="xppline0"  x1="592"  y1="242" x2="591"   y2="243" />
      <line class="xppline0"  x1="593"  y1="242" x2="592"   y2="242" />
      <line class="xppline0"  x1="593"  y1="241" x2="593"   y2="242" />
      <line class="xppline0"  x1="594"  y1="241" x2="593"   y2="241" />
      <line class="xppline0"  x1="595"  y1="240" x2="594"   y2="241" />
      <line class="xppline0"  x1="369"  y1="238" x2="369"   y2="238" />
      <line class="xppline0"  x1="369"  y1="238" x2="369"   y2="238" />
      <line class="xppline0"  x1="369"  y1="238" x2="369"   y2="238" />
      <line class="xppline0"  x1="368"  y1="238" x2="369"   y2="238" />
      <line class="xppline0"  x1="368"  y1="237" x2="368"   y2="238" />
      <line class="xppline0"  x1="367"  y1="237" x2="368"   y2="237" />
      <line class="xppline0"  x1="366"  y1="237" x2="367"   y2="237" />
      <line class="xppline0"  x1="364"  y1="236" x2="366"   y2="237" />
      <line class="xppline0"  x1="363"  y1="236" x2="364"   y2="236" />
      <line class="xppline0"  x1="361"  y1="235" x2="363"   y2="236" />
      <line class="xppline0"  x1="360"  y1="235" x2="361"   y2="235" />
      <line class="xppline0"  x1="358"  y1="234" x2="360"   y2="235" />
      <line class="xppline0"  x1="357"  y1="234" x2="358"   y2="234" />
      <line class="xppline0"  x1="356"  y1="233" x2="357"   y2="234" />
      <line class="xppline0"  x1="355"  y1="233" x2="356"   y2="233" />
      <line class="xppline0"  x1="353"  y1="232" x2="355"   y2="233" />
      <line class="xppline0"  x1="352"  y1="232" x2="353"   y2="232" />
      <line class="xppline0"  x1="351"  y1="231" x2="352"   y2="232" />
      <line class="xppline0"  x1="349"  y1="231" x2="351"   y2="231" />
      <line class="xppline0"  x1="348"  y1="230" x2="349"   y2="231" />
      <line class="xppline0"  x1="347"  y1="230" x2="348"   y2="230" />
      <line class="xppline0"  x1="346"  y1="229" x2="347"   y2="230" />
      <line class="xppline0"  x1="344"  y1="229" x2="346"   y2="229" />
      <line class="xppline0"  x1="343"  y1="228" x2="344"   y2="229" />
      <line class="xppline0"  x1="342"  y1="228" x2="343"   y2="228" />
      <line class="xppline0"  x1="341"  y1="227" x2="342"   y2="228" />
      <line class="xppline0"  x1="340"  y1="227" x2="341"   y2="227" />
      <line class="xppline0"  x1="339"  y1="226" x2="340"   y2="227" />
      <line class="xppline0"  x1="337"  y1="226" x2="339"   y2="226" />
      <line class="xppline0"  x1="336"  y1="225" x2="337"   y2="226" />
      <line class="xppline0"  x1="335"  y1="225" x2="336"   y2="225" />
      <line class="xppline0"  x1="334"  y1="224" x2="335"   y2="225" />
      <line class="xppline0"  x1="333"  y1="224" x2="334"   y2="224" />
      <line class="xppline0"  x1="332"  y1="223" x2="333"   y2="224" />
      <line class="xppline0"  x1="331"  y1="223" x2="332"   y2="223" />
      <line class="xppline0"  x1="330"  y1="222" x2="331"   y2="223" />
      <line class="xppline0"  x1="329"  y1="222" x2="330"   y2="222" />
      <line class="xppline0"  x1="328"  y1="221" x2="329"   y2="222" />
      <line class="xppline0"  x1="327"  y1="221" x2="328"   y2="221" />
      <line class="xppline0"  x1="326"  y1="220" x2="327"   y2="221" />
      <line class="xppline0"  x1="325"  y1="220" x2="326"   y2="220" />
      <line class="xppline0"  x1="324"  y1="219" x2="325"   y2="220" />
      <line class="xppline0"  x1="323"  y1="219" x2="324"   y2="219" />
      <line class="xppline0"  x1="322"  y1="218" x2="323"   y2="219" />
      <line class="xppline0"  x1="321"  y1="218" x2="322"   y2="218" />
      <line class="xppline0"  x1="320"  y1="217" x2="321"   y2="218" />
      <line class="xppline0"  x1="319"  y1="217" x2="320"   y2="217" />
      <line class="xppline0"  x1="318"  y1="216" x2="319"   y2="217" />
      <line class="xppline0"  x1="317"  y1="216" x2="318"   y2="216" />
      <line class="xppline0"  x1="317"  y1="215" x2="317"   y2="216" />
      <line class="xppline0"  x1="316"  y1="215" x2="317"   y2="215" />
      <line class="xppline0"  x1="315"  y1="214" x2="316"   y2="215" />
      <line class="xppline0"  x1="314"  y1="214" x2="315"   y2="214" />
      <line class="xppline0"  x1="313"  y1="213" x2="314"   y2="214" />
      <line class="xppline0"  x1="312"  y1="213" x2="313"   y2="213" />
      <line class="xppline0"  x1="311"  y1="212" x2="312"   y2="213" />
      <line class="xppline0"  x1="310"  y1="212" x2="311"   y2="212" />
      <line class="xppline0"  x1="310"  y1="211" x2="310"   y2="212" />
      <line class="xppline0"  x1="309"  y1="211" x2="310"   y2="211" />
      <line class="xppline0"  x1="308"  y1="210" x2="309"   y2="211" />
      <line class="xppline0"  x1="307"  y1="210" x2="308"   y2="210" />
      <line class="xppline0"  x1="306"  y1="209" x2="307"   y2="210" />
      <line class="xppline0"  x1="306"  y1="209" x2="306"   y2="209" />
      <line class="xppline0"  x1="305"  y1="208" x2="306"   y2="209" />
      <line class="xppline0"  x1="304"  y1="208" x2="305"   y2="208" />
      <line class="xppline0"  x1="303"  y1="207" x2="304"   y2="208" />
      <line class="xppline0"  x1="303"  y1="207" x2="303"   y2="207" />
      <line class="xppline0"  x1="302"  y1="206" x2="303"   y2="207" />
      <line class="xppline0"  x1="301"  y1="206" x2="302"   y2="206" />
      <line class="xppline0"  x1="300"  y1="205" x2="301"   y2="206" />
      <line class="xppline0"  x1="299"  y1="205" x2="300"   y2="205" />
      <line class="xppline0"  x1="299"  y1="204" x2="299"   y2="205" />
      <line class="xppline0"  x1="298"  y1="204" x2="299"   y2="204" />
      <line class="xppline0"  x1="297"  y1="203" x2="298"   y2="204" />
      <line class="xppline0"  x1="296"  y1="203" x2="297"   y2="203" />
      <line class="xppline0"  x1="296"  y1="202" x2="296"   y2="203" />
      <line class="xppline0"  x1="295"  y1="202" x2="296"   y2="202" />
      <line class="xppline0"  x1="294"  y1="201" x2="295"   y2="202" />
      <line class="xppline0"  x1="293"  y1="201" x2="294"   y2="201" />
      <line class="xppline0"  x1="293"  y1="200" x2="293"   y2="201" />
      <line class="xppline0"  x1="292"  y1="200" x2="293"   y2="200" />
      <line class="xppline0"  x1="291"  y1="199" x2="292"   y2="200" />
      <line class="xppline0"  x1="290"  y1="199" x2="291"   y2="199" />
      <line class="xppline0"  x1="290"  y1="198" x2="290"   y2="199" />
      <line class="xppline0"  x1="289"  y1="198" x2="290"   y2="198" />
      <line class="xppline0"  x1="288"  y1="197" x2="289"   y2="198" />
      <line class="xppline0"  x1="287"  y1="197" x2="288"   y2="197" />
      <line class="xppline0"  x1="286"  y1="196" x2="287"   y2="197" />
      <line class="xppline0"  x1="285"  y1="196" x2="286"   y2="196" />
      <line class="xppline0"  x1="284"  y1="195" x2="285"   y2="196" />
      <line class="xppline0"  x1="283"  y1="195" x2="284"   y2="195" />
      <line class="xppline0"  x1="281"  y1="194" x2="283"   y2="195" />
      <line class="xppline0"  x1="279"  y1="194" x2="281"   y2="194" />
      <line class="xppline0"  x1="277"  y1="193" x2="279"   y2="194" />
      <line class="xppline0"  x1="275"  y1="193" x2="277"   y2="193" />
      <line class="xppline0"  x1="271"  y1="193" x2="275"   y2="193" />
      <line class="xppline0"  x1="268"  y1="192" x2="271"   y2="193" />
      <line class="xppline0"  x1="263"  y1="192" x2="268"   y2="192" />
      <line class="xppline0"  x1="258"  y1="192" x2="263"   y2="192" />
      <line class="xppline0"  x1="252"  y1="192" x2="258"   y2="192" />
      <line class="xppline0"  x1="248"  y1="193" x2="252"   y2="192" />
      <line class="xppline0"  x1="245"  y1="193" x2="248"   y2="193" />
      <line class="xppline0"  x1="242"  y1="194" x2="245"   y2="193" />
      <line class="xppline0"  x1="239"  y1="194" x2="242"   y2="194" />
      <line class="xppline0"  x1="236"  y1="195" x2="239"   y2="194" />
      <line class="xppline0"  x1="234"  y1="195" x2="236"   y2="195" />
      <line class="xppline0"  x1="232"  y1="196" x2="234"   y2="195" />
      <line class="xppline0"  x1="230"  y1="196" x2="232"   y2="196" />
      <line class="xppline0"  x1="228"  y1="197" x2="230"   y2="196" />
      <line class="xppline0"  x1="226"  y1="197" x2="228"   y2="197" />
      <line class="xppline0"  x1="224"  y1="198" x2="226"   y2="197" />
      <line class="xppline0"  x1="222"  y1="198" x2="224"   y2="198" />
      <line class="xppline0"  x1="221"  y1="199" x2="222"   y2="198" />
      <line class="xppline0"  x1="219"  y1="199" x2="221"   y2="199" />
      <line class="xppline0"  x1="217"  y1="200" x2="219"   y2="199" />
      <line class="xppline0"  x1="216"  y1="200" x2="217"   y2="200" />
      <line class="xppline0"  x1="214"  y1="201" x2="216"   y2="200" />
      <line class="xppline0"  x1="213"  y1="201" x2="214"   y2="201" />
      <line class="xppline0"  x1="212"  y1="202" x2="213"   y2="201" />
      <line class="xppline0"  x1="210"  y1="202" x2="212"   y2="202" />
      <line class="xppline0"  x1="209"  y1="203" x2="210"   y2="202" />
      <line class="xppline0"  x1="208"  y1="203" x2="209"   y2="203" />
      <line class="xppline0"  x1="206"  y1="204" x2="208"   y2="203" />
      <line class="xppline0"  x1="205"  y1="204" x2="206"   y2="204" />
      <line class="xppline0"  x1="204"  y1="205" x2="205"   y2="204" />
      <line class="xppline0"  x1="202"  y1="205" x2="204"   y2="205" />
      <line class="xppline0"  x1="201"  y1="206" x2="202"   y2="205" />
      <line class="xppline0"  x1="200"  y1="206" x2="201"   y2="206" />
      <line class="xppline0"  x1="199"  y1="207" x2="200"   y2="206" />
      <line class="xppline0"  x1="198"  y1="207" x2="199"   y2="207" />
      <line class="xppline0"  x1="197"  y1="208" x2="198"   y2="207" />
      <line class="xppline0"  x1="196"  y1="208" x2="197"   y2="208" />
      <line class="xppline0"  x1="194"  y1="209" x2="196"   y2="208" />
      <line class="xppline0"  x1="193"  y1="209" x2="194"   y2="209" />
      <line class="xppline0"  x1="192"  y1="210" x2="193"   y2="209" />
      <line class="xppline0"  x1="191"  y1="210" x2="192"   y2="210" />
      <line class="xppline0"  x1="190"  y1="211" x2="191"   y2="210" />
      <line class="xppline0"  x1="189"  y1="211" x2="190"   y2="211" />
      <line class="xppline0"  x1="188"  y1="212" x2="189"   y2="211" />
      <line class="xppline0"  x1="187"  y1="212" x2="188"   y2="212" />
      <line class="xppline0"  x1="186"  y1="213" x2="187"   y2="212" />
      <line class="xppline0"  x1="185"  y1="213" x2="186"   y2="213" />
      <line class="xppline0"  x1="184"  y1="214" x2="185"   y2="213" />
      <line class="xppline0"  x1="183"  y1="214" x2="184"   y2="214" />
      <line class="xppline0"  x1="182"  y1="215" x2="183"   y2="214" />
      <line class="xppline0"  x1="181"  y1="215" x2="182"   y2="215" />
      <line class="xppline0"  x1="181"  y1="216" x2="181"   y2="215" />
      <line class="xppline0"  x1="180"  y1="216" x2="181"   y2="216" />
      <line class="xppline0"  x1="179"  y1="217" x2="180"   y2="216" />
      <line class="xppline0"  x1="178"  y1="217" x2="179"   y2="217" />
      <line class="xppline0"  x1="177"  y1="218" x2="178"   y2="217" />
      <line class="xppline0"  x1="176"  y1="218" x2="177"   y2="218" />
      <line class="xppline0"  x1="175"  y1="219" x2="176"   y2="218" />
      <line class="xppline0"  x1="174"  y1="219" x2="175"   y2="219" />
      <line class="xppline0"  x1="173"  y1="220" x2="174"   y2="219" />
      <line class="xppline0"  x1="173"  y1="220" x2="173"   y2="220" />
      <line class="xppline0"  x1="172"  y1="221" x2="173"   y2="220" />
      <line class="xppline0"  x1="171"  y1="221" x2="172"   y2="221" />
      <line class="xppline0"  x1="170"  y1="222" x2="171"   y2="221" />
      <line class="xppline0"  x1="169"  y1="222" x2="170"   y2="222" />
      <line class="xppline0"  x1="168"  y1="223" x2="169"   y2="222" />
      <line class="xppline0"  x1="168"  y1="223" x2="168"   y2="223" />
      <line class="xppline0"  x1="167"  y1="224" x2="168"   y2="223" />
      <line class="xppline0"  x1="166"  y1="224" x2="167"   y2="224" />
      <line class="xppline0"  x1="165"  y1="225" x2="166"   y2="224" />
      <line class="xppline0"  x1="164"  y1="225" x2="165"   y2="225" />
      <line class="xppline0"  x1="164"  y1="226" x2="164"   y2="225" />
      <line class="xppline0"  x1="163"  y1="226" x2="164"   y2="226" />
      <line class="xppline0"  x1="162"  y1="227" x2="163"   y2="226" />
      <line class="xppline0"  x1="161"  y1="227" x2="162"   y2="227" />
      <line class="xppline0"  x1="161"  y1="228" x2="161"   y2="227" />
      <line class="xppline0"  x1="160"  y1="228" x2="161"   y2="228" />
      <line class="xppline0"  x1="159"  y1="229" x2="160"   y2="228" />
      <line class="xppline0"  x1="158"  y1="229" x2="159"   y2="229" />
      <line class="xppline0"  x1="158"  y1="230" x2="158"   y2="229" />
      <line class="xppline0"  x1="157"  y1="230" x2="158"   y2="230" />
      <line class="xppline0"  x1="156"  y1="231" x2="157"   y2="230" />
      <line class="xppline0"  x1="155"  y1="231" x2="156"   y2="231" />
      <line class="xppline0"  x1="155"  y1="232" x2="155"   y2="231" />
      <line class="xppline0"  x1="154"  y1="232" x2="155"   y2="232" />
      <line class="xppline0"  x1="153"  y1="233" x2="154"   y2="232" />
      <line class="xppline0"  x1="153"  y1="233" x2="153"   y2="233" />
      <line class="xppline0"  x1="152"  y1="234" x2="153"   y2="233" />
      <line class="xppline0"  x1="151"  y1="234" x2="152"   y2="234" />
      <line class="xppline0"  x1="151"  y1="235" x2="151"   y2="234" />
      <line class="xppline0"  x1="150"  y1="235" x2="151"   y2="235" />
      <line class="xppline0"  x1="149"  y1="236" x2="150"   y2="235" />
      <line class="xppline0"  x1="148"  y1="236" x2="149"   y2="236" />
      <line class="xppline0"  x1="148"  y1="237" x2="148"   y2="236" />
      <line class="xppline0"  x1="147"  y1="237" x2="148"   y2="237" />
      <line class="xppline0"  x1="146"  y1="238" x2="147"   y2="237" />
      <line class="xppline0"  x1="146"  y1="238" x2="146"   y2="238" />
      <line class="xppline0"  x1="145"  y1="239" x2="146"   y2="238" />
      <line class="xppline0"  x1="144"  y1="239" x2="145"   y2="239" />
      <line class="xppline0"  x1="144"  y1="240" x2="144"   y2="239" />
      <line class="xppline0"  x1="144"  y1="240" x2="144"   y2="240" />
</svg>
